PathFileType	4	(X/Y/Z)	D:\TRACE\spotREDO_2-26-24\spot_justBody_Motion_3_3-v60.trc
DataRate	CameraRate	NumFrames	NumMarkers	Units	OrigDataRate	OrigDataStartFrame	OrigNumFrames
100.00	100.00	      21	9	mm	100.00	1	      7000
Frame#	Time	front left toe			Front right toe			aft left toe			aft right toe			Arm			FL body			FR body			AL Body			AR Body			
		X1	Y1	Z1	X2	Y2	Z2	X3	Y3	Z3	X4	Y4	Z4	X5	Y5	Z5	X6	Y6	Z6	X7	Y7	Z7	X8	Y8	Z8	X9	Y9	Z9	

1	0.000	-307.71545	70.88105	-228.93405	203.76257	61.86475	-180.64064	-349.89139	-37.01927	370.32404	153.98058	-40.10159	416.47586	-33.55064	812.20013	-312.83447	-114.40190	550.72266	-318.66913	41.29209	556.43549	-307.63849	-181.00029	482.68314	560.66486	-39.42659	487.86179	572.18103	
2	0.010	-307.70862	70.80093	-228.98816	203.81270	62.11154	-180.53673	-349.89545	-36.98643	370.16959	154.26801	-39.84758	416.47559	-33.61419	816.66296	-312.07239	-114.31595	555.28870	-318.58340	41.41640	561.18274	-307.56171	-181.07143	484.75690	560.50610	-39.78792	489.93900	572.16376	
3	0.020	-307.64572	70.65199	-229.14436	203.94485	62.12801	-180.68414	-349.83295	-36.92764	369.99130	154.31461	-39.77583	416.35611	-33.87098	821.43787	-311.29626	-114.32304	559.72076	-318.58591	41.34509	565.85608	-307.55301	-181.34654	486.63712	560.03467	-39.78650	491.96539	572.00336	
4	0.030	-307.60352	70.63377	-229.39156	204.00026	61.82197	-180.90256	-349.87701	-36.79479	369.75037	154.30580	-39.73049	416.19788	-34.11516	825.60486	-310.37952	-114.36780	564.15338	-318.53549	41.27674	570.11707	-307.39734	-181.37715	488.41199	559.83612	-39.73623	493.96445	571.89880	
5	0.040	-307.66486	70.55209	-229.63005	204.24362	62.27141	-180.94290	-349.95273	-36.61708	369.49960	154.34041	-39.63348	416.05939	-34.44078	829.70941	-309.76221	-114.30566	568.26929	-318.39978	41.51426	574.44849	-307.11578	-181.11053	490.32715	560.03577	-39.69590	495.61496	571.76184	
6	0.050	-307.77338	70.58036	-229.85258	204.23697	61.72058	-181.50497	-350.02359	-36.44627	369.23697	154.37080	-39.62658	416.00375	-34.72565	833.65131	-308.95792	-114.09148	572.01788	-318.44550	41.58832	578.37817	-307.07230	-181.30426	491.75226	559.83826	-39.77228	497.35071	571.61853	
7	0.060	-307.82483	70.67280	-230.09856	204.21346	62.12572	-181.41995	-350.02484	-36.45986	369.19849	154.34760	-39.60708	415.91135	-34.69732	837.36218	-308.25143	-114.05057	575.73334	-318.45700	41.46658	582.28308	-307.08279	-181.08560	493.10895	559.68750	-39.65898	498.68796	571.52362	
8	0.070	-307.91083	70.72864	-230.38829	204.24403	62.03425	-181.64011	-349.98843	-36.56216	369.20108	154.34811	-39.60667	415.77112	-34.72376	841.06812	-307.33224	-113.75201	579.22186	-318.41959	41.63216	585.95233	-307.00970	-181.39603	494.32138	559.49243	-39.89828	500.13889	571.20428	
9	0.080	-307.99744	70.75199	-230.63394	204.33351	61.68423	-181.90022	-350.00851	-36.46800	369.08603	154.36215	-39.59860	415.68390	-34.93139	844.36279	-306.81943	-113.86689	582.71381	-318.47043	41.47683	589.24084	-306.96463	-181.30183	495.41620	558.86908	-39.75706	501.07367	571.06097	
10	0.090	-308.03247	70.78944	-230.87404	204.43900	61.81964	-181.90146	-350.01007	-36.40979	368.99591	154.32666	-39.59745	415.61270	-35.16541	847.42841	-305.96118	-113.80972	585.69092	-318.44785	41.66442	593.01184	-307.13596	-181.19984	496.32642	559.14215	-39.89158	502.18707	570.84027	
11	0.100	-308.04181	70.75951	-231.00949	204.45224	61.82255	-182.07217	-349.98126	-36.35292	368.89258	154.37582	-39.59361	415.55273	-35.25059	850.50348	-305.37933	-113.62546	588.72321	-318.24445	41.77047	596.10992	-307.18106	-181.30569	497.18164	559.05884	-39.58046	503.05554	570.89337	
12	0.110	-307.99298	70.70667	-231.10039	204.57986	61.47330	-182.57848	-350.02621	-36.36251	368.87921	154.39606	-39.61875	415.44678	-35.28904	853.21289	-304.78549	-113.59639	591.40607	-318.36475	41.81363	598.70752	-307.01938	-181.19803	497.87079	558.83337	-39.54451	503.68857	570.54810	
13	0.120	-307.88550	70.62723	-231.19229	204.59474	61.58615	-182.67197	-349.96347	-36.49554	368.85730	154.41658	-39.66253	415.35059	-35.41368	855.58801	-304.09332	-113.58862	593.85498	-318.36929	41.89562	600.88458	-306.60110	-181.08438	498.37515	558.68329	-39.60032	504.24078	570.40729	
14	0.130	-307.88528	70.62395	-231.22119	204.67766	61.63821	-182.83127	-349.92264	-36.41562	368.74207	154.42972	-39.67123	415.30594	-35.36917	857.85950	-303.52310	-113.64895	596.18396	-318.35767	41.89107	603.31683	-306.62933	-180.94020	498.86774	558.61084	-39.49961	504.88510	570.28131	
15	0.140	-307.83673	70.62181	-231.32071	204.70676	62.02977	-182.64749	-349.98135	-36.37009	368.67316	154.42903	-39.63040	415.23691	-35.58946	859.96948	-303.15036	-113.61996	598.30121	-318.27084	41.95417	605.38806	-306.66901	-181.08083	499.18610	557.97333	-41.22028	506.92270	568.20685	
16	0.150	-307.83102	70.64444	-231.41579	204.68146	62.02992	-182.78883	-349.92804	-36.32171	368.65662	154.45172	-39.62230	415.18051	-35.58191	861.97150	-302.57224	-113.66457	600.13666	-318.25446	41.66639	607.16943	-306.74042	-180.92134	499.59512	557.84900	-39.08974	505.50272	570.09930	
17	0.160	-307.83948	70.61922	-231.44904	204.68988	61.72376	-183.12395	-349.85443	-36.37471	368.64478	154.47946	-39.63216	415.16833	-35.66746	863.59814	-302.10086	-113.72945	601.73688	-318.21799	41.71325	608.88049	-306.65689	-180.72035	499.90118	558.21515	-39.06123	505.84879	569.94147	
18	0.170	-307.86618	70.58102	-231.52069	204.66495	62.03225	-182.92097	-349.91846	-36.40260	368.70203	154.46161	-39.63210	415.12943	-35.91875	865.10834	-301.80521	-113.74784	603.36163	-318.14288	41.48438	610.29156	-306.66724	-180.52962	499.96671	558.09033	-38.77493	505.67786	569.71515	
19	0.180	-307.88281	70.60557	-231.60011	204.56853	61.61721	-183.36293	-349.91238	-36.46002	368.70456	154.46597	-39.69204	415.14420	-36.11259	866.42792	-301.33426	-113.97329	604.68060	-318.10583	41.53399	611.47437	-306.63885	-180.23991	499.88196	557.90607	-38.71405	505.56583	569.58820	
20	0.190	-307.87872	70.61244	-231.64236	204.49835	61.92316	-183.13428	-349.95816	-36.41845	368.72577	154.45625	-39.68114	415.15518	-35.95879	867.54095	-300.70282	-113.77089	605.93579	-318.02319	41.59765	612.91345	-306.56335	-179.98906	499.73834	557.79974	-38.81544	505.62521	569.41351	
21	0.200	-307.86319	70.61929	-231.68108	204.61224	61.99379	-183.07434	-349.94919	-36.37118	368.67984	154.44914	-39.70483	415.12881	-36.26715	868.64954	-300.41806	-114.03951	606.84497	-317.99078	41.48331	613.67340	-306.62067	-180.09622	499.47049	557.12451	-38.61663	505.17938	569.30719	
